<?xml version="1.0" encoding="UTF-8" standalone="no"?>
<!DOCTYPE svg PUBLIC "-//W3C//DTD SVG 1.1//EN"
 "http://www.w3.org/Graphics/SVG/1.1/DTD/svg11.dtd">
<!-- Generated by graphviz version 2.40.1 (20161225.0304)
 -->
<!-- Title: G Pages: 1 -->
<svg width="916pt" height="511pt"
 viewBox="0.00 0.00 915.68 511.11" xmlns="http://www.w3.org/2000/svg" xmlns:xlink="http://www.w3.org/1999/xlink">
<g id="graph0" class="graph" transform="scale(1 1) rotate(0) translate(36 475.1057)">
<title>G</title>
<polygon fill="#f7f7f7" stroke="transparent" points="-36,36 -36,-475.1057 879.676,-475.1057 879.676,36 -36,36"/>
<!-- appuser -->
<g id="node1" class="node">
<title>appuser</title>
<polygon fill="none" stroke="#000000" points="100,-235.1057 0,-235.1057 0,-135.1057 100,-135.1057 100,-235.1057"/>
<polygon fill="#d3d3d3" stroke="transparent" points="0,-197.1057 0,-235.1057 100,-235.1057 100,-197.1057 0,-197.1057"/>
<polygon fill="none" stroke="#000000" points="0,-197.1057 0,-235.1057 100,-235.1057 100,-197.1057 0,-197.1057"/>
<text text-anchor="start" x="35.356" y="-212.9057" font-family="Helvetica Neue" font-size="14.00" fill="#333333">User</text>
</g>
<!-- appthread -->
<g id="node2" class="node">
<title>appthread</title>
<polygon fill="none" stroke="#000000" points="347.892,-392.1057 247.892,-392.1057 247.892,-292.1057 347.892,-292.1057 347.892,-392.1057"/>
<polygon fill="#d3d3d3" stroke="transparent" points="247.892,-354.1057 247.892,-392.1057 347.892,-392.1057 347.892,-354.1057 247.892,-354.1057"/>
<polygon fill="none" stroke="#000000" points="247.892,-354.1057 247.892,-392.1057 347.892,-392.1057 347.892,-354.1057 247.892,-354.1057"/>
<text text-anchor="start" x="276.108" y="-369.9057" font-family="Helvetica Neue" font-size="14.00" fill="#333333">Thread</text>
</g>
<!-- appuser&#45;&gt;appthread -->
<g id="edge1" class="edge">
<title>appuser:id&#45;&gt;appthread:user_id</title>
<path fill="none" stroke="#fcbf49" stroke-width="1.8" d="M100.3264,-217.2816C133.9327,-238.7676 172,-263.1057 172,-263.1057 172,-263.1057 206.2689,-284.6102 239.048,-305.1798"/>
<polygon fill="#fcbf49" stroke="#fcbf49" stroke-width="1.8" points="239.304,-305.3404 245.3825,-314.4675 243.5392,-307.9981 247.7744,-310.6558 247.7744,-310.6558 247.7744,-310.6558 243.5392,-307.9981 250.1663,-306.8442 239.304,-305.3404 239.304,-305.3404"/>
<text text-anchor="middle" x="173.946" y="-270.6076" font-family="Helvetica Neue" font-size="14.00" fill="#000000"> </text>
<text text-anchor="middle" x="139.9475" y="-250.3128" font-family="Helvetica Neue" font-size="14.00" fill="#000000">HasMany</text>
<text text-anchor="middle" x="139.9475" y="-233.6109" font-family="Helvetica Neue" font-size="14.00" fill="#000000">threads</text>
</g>
<!-- appactivity -->
<g id="node3" class="node">
<title>appactivity</title>
<polygon fill="none" stroke="#000000" points="347.892,-186.1057 247.892,-186.1057 247.892,-86.1057 347.892,-86.1057 347.892,-186.1057"/>
<polygon fill="#d3d3d3" stroke="transparent" points="247.892,-148.1057 247.892,-186.1057 347.892,-186.1057 347.892,-148.1057 247.892,-148.1057"/>
<polygon fill="none" stroke="#000000" points="247.892,-148.1057 247.892,-186.1057 347.892,-186.1057 347.892,-148.1057 247.892,-148.1057"/>
<text text-anchor="start" x="275.079" y="-163.9057" font-family="Helvetica Neue" font-size="14.00" fill="#333333">Activity</text>
</g>
<!-- appuser&#45;&gt;appactivity -->
<g id="edge2" class="edge">
<title>appuser:id&#45;&gt;appactivity:user_id</title>
<path fill="none" stroke="#fcbf49" stroke-width="1.8" d="M100.3264,-164.1906C133.9327,-150.2242 172,-134.4038 172,-134.4038 172,-134.4038 175.892,-134.4038 175.892,-134.4038 175.892,-134.4038 206.6195,-134.8325 237.2327,-135.2595"/>
<polygon fill="#fcbf49" stroke="#fcbf49" stroke-width="1.8" points="237.5665,-135.2641 247.5028,-139.9032 242.5661,-135.3339 247.5656,-135.4037 247.5656,-135.4037 247.5656,-135.4037 242.5661,-135.3339 247.6284,-130.9041 237.5665,-135.2641 237.5665,-135.2641"/>
<text text-anchor="middle" x="173.946" y="-140.6076" font-family="Helvetica Neue" font-size="14.00" fill="#000000"> </text>
<text text-anchor="middle" x="136.7239" y="-125.579" font-family="Helvetica Neue" font-size="14.00" fill="#000000">HasMany</text>
<text text-anchor="middle" x="136.7239" y="-108.8771" font-family="Helvetica Neue" font-size="14.00" fill="#000000">activity</text>
</g>
<!-- appthread&#45;&gt;appuser -->
<g id="edge9" class="edge">
<title>appthread:user_id&#45;&gt;appuser:id</title>
<path fill="none" stroke="#f77f00" stroke-width="1.8" d="M240.0266,-291.022C208.5184,-263.2064 175.892,-234.4038 175.892,-234.4038 175.892,-234.4038 138.948,-219.9369 105.0864,-206.677"/>
<polygon fill="#f77f00" stroke="#f77f00" stroke-width="1.8" points="240.0688,-291.0593 244.5874,-301.0509 243.8172,-294.3683 247.5656,-297.6774 247.5656,-297.6774 247.5656,-297.6774 243.8172,-294.3683 250.5437,-294.3039 240.0688,-291.0593 240.0688,-291.0593"/>
<polygon fill="#f77f00" stroke="#f77f00" stroke-width="1.8" points="99.2255,-209.7517 102.8719,-200.4402 104.7343,-201.1694 101.0878,-210.481 99.2255,-209.7517"/>
<polyline fill="none" stroke="#f77f00" stroke-width="1.8" points="100.1176,-204.7313 104.7734,-206.5545 "/>
<text text-anchor="middle" x="173.946" y="-239.6076" font-family="Helvetica Neue" font-size="14.00" fill="#000000"> </text>
<text text-anchor="middle" x="212.2515" y="-226.3506" font-family="Helvetica Neue" font-size="14.00" fill="#000000">BelongsTo</text>
<text text-anchor="middle" x="212.2515" y="-209.6487" font-family="Helvetica Neue" font-size="14.00" fill="#000000">creator</text>
</g>
<!-- appreply -->
<g id="node4" class="node">
<title>appreply</title>
<polygon fill="none" stroke="#000000" points="595.784,-204.1057 495.784,-204.1057 495.784,-104.1057 595.784,-104.1057 595.784,-204.1057"/>
<polygon fill="#d3d3d3" stroke="transparent" points="495.784,-166.1057 495.784,-204.1057 595.784,-204.1057 595.784,-166.1057 495.784,-166.1057"/>
<polygon fill="none" stroke="#000000" points="495.784,-166.1057 495.784,-204.1057 595.784,-204.1057 595.784,-166.1057 495.784,-166.1057"/>
<text text-anchor="start" x="528.025" y="-181.9057" font-family="Helvetica Neue" font-size="14.00" fill="#333333">Reply</text>
</g>
<!-- appthread&#45;&gt;appreply -->
<g id="edge8" class="edge">
<title>appthread:id&#45;&gt;appreply:thread_id</title>
<path fill="none" stroke="#fcbf49" stroke-width="1.8" d="M348.0566,-304.0611C388.4608,-273.4188 445.3112,-230.3038 487.689,-198.1647"/>
<polygon fill="#fcbf49" stroke="#fcbf49" stroke-width="1.8" points="487.7262,-198.1365 498.4132,-195.6792 491.7101,-195.1151 495.694,-192.0937 495.694,-192.0937 495.694,-192.0937 491.7101,-195.1151 492.9747,-188.5082 487.7262,-198.1365 487.7262,-198.1365"/>
<text text-anchor="middle" x="421.838" y="-253.6076" font-family="Helvetica Neue" font-size="14.00" fill="#000000"> </text>
<text text-anchor="middle" x="388.3118" y="-239.9129" font-family="Helvetica Neue" font-size="14.00" fill="#000000">HasMany</text>
<text text-anchor="middle" x="388.3118" y="-223.211" font-family="Helvetica Neue" font-size="14.00" fill="#000000">replies</text>
</g>
<!-- appchannel -->
<g id="node6" class="node">
<title>appchannel</title>
<polygon fill="none" stroke="#000000" points="595.784,-439.1057 495.784,-439.1057 495.784,-339.1057 595.784,-339.1057 595.784,-439.1057"/>
<polygon fill="#d3d3d3" stroke="transparent" points="495.784,-401.1057 495.784,-439.1057 595.784,-439.1057 595.784,-401.1057 495.784,-401.1057"/>
<polygon fill="none" stroke="#000000" points="495.784,-401.1057 495.784,-439.1057 595.784,-439.1057 595.784,-401.1057 495.784,-401.1057"/>
<text text-anchor="start" x="519.982" y="-416.9057" font-family="Helvetica Neue" font-size="14.00" fill="#333333">Channel</text>
</g>
<!-- appthread&#45;&gt;appchannel -->
<g id="edge10" class="edge">
<title>appthread:channel_id&#45;&gt;appchannel:id</title>
<path fill="none" stroke="#f77f00" stroke-width="1.8" d="M358.5513,-338.7735C389.1645,-337.0918 419.892,-335.4038 419.892,-335.4038 419.892,-335.4038 423.784,-335.4038 423.784,-335.4038 423.784,-335.4038 458.3661,-350.6262 490.7067,-364.8618"/>
<polygon fill="#f77f00" stroke="#f77f00" stroke-width="1.8" points="358.2034,-338.7925 347.9716,-334.8479 353.2109,-339.0668 348.2184,-339.3411 348.2184,-339.3411 348.2184,-339.3411 353.2109,-339.0668 348.4653,-343.8343 358.2034,-338.7925 358.2034,-338.7925"/>
<polygon fill="#f77f00" stroke="#f77f00" stroke-width="1.8" points="496.5568,-361.9739 492.5279,-371.1264 490.6974,-370.3207 494.7262,-361.1681 496.5568,-361.9739"/>
<polyline fill="none" stroke="#f77f00" stroke-width="1.8" points="495.4576,-366.953 490.8813,-364.9386 "/>
<text text-anchor="middle" x="421.838" y="-340.6076" font-family="Helvetica Neue" font-size="14.00" fill="#000000"> </text>
<text text-anchor="middle" x="460.1458" y="-325.7738" font-family="Helvetica Neue" font-size="14.00" fill="#000000">BelongsTo</text>
<text text-anchor="middle" x="460.1458" y="-309.0719" font-family="Helvetica Neue" font-size="14.00" fill="#000000">channel</text>
</g>
<!-- appactivity&#45;&gt;appactivity -->
<g id="edge7" class="edge">
<title>appactivity:subject_id&#45;&gt;appactivity</title>
<path fill="none" stroke="#003049" stroke-width="1.8" d="M277.4799,-186.233C270.834,-222.2394 277.6381,-258.1057 297.892,-258.1057 316.2471,-258.1057 323.556,-228.6491 319.8186,-196.3267"/>
<polygon fill="#003049" stroke="#003049" stroke-width="1.8" points="323.2493,-195.603 318.3041,-186.233 316.3268,-196.6417 323.2493,-195.603"/>
<text text-anchor="middle" x="297.892" y="-263.6076" font-family="Helvetica Neue" font-size="14.00" fill="#000000"> </text>
<text text-anchor="middle" x="324.3887" y="-242.4998" font-family="Helvetica Neue" font-size="14.00" fill="#000000">MorphTo</text>
<text text-anchor="middle" x="324.3887" y="-225.7979" font-family="Helvetica Neue" font-size="14.00" fill="#000000">subject</text>
</g>
<!-- appreply&#45;&gt;appuser -->
<g id="edge3" class="edge">
<title>appreply:user_id&#45;&gt;appuser:id</title>
<path fill="none" stroke="#f77f00" stroke-width="1.8" d="M486.7998,-118.129C428.478,-82.5563 347.892,-33.4038 347.892,-33.4038 347.892,-33.4038 247.892,-33.4038 247.892,-33.4038 247.892,-33.4038 162.9462,-98.5224 104.3632,-143.4315"/>
<polygon fill="#f77f00" stroke="#f77f00" stroke-width="1.8" points="487.0544,-118.2842 493.2484,-127.3333 491.323,-120.8879 495.5917,-123.4915 495.5917,-123.4915 495.5917,-123.4915 491.323,-120.8879 497.9349,-119.6497 487.0544,-118.2842 487.0544,-118.2842"/>
<polygon fill="#f77f00" stroke="#f77f00" stroke-width="1.8" points="104.028,-149.9886 97.944,-142.0522 99.5312,-140.8354 105.6153,-148.7718 104.028,-149.9886"/>
<polyline fill="none" stroke="#f77f00" stroke-width="1.8" points="100.1923,-146.6288 104.1605,-143.5868 "/>
<text text-anchor="middle" x="297.892" y="-39.6076" font-family="Helvetica Neue" font-size="14.00" fill="#000000"> </text>
<text text-anchor="middle" x="256.0259" y="-22.2038" font-family="Helvetica Neue" font-size="14.00" fill="#000000">BelongsTo</text>
<text text-anchor="middle" x="256.0259" y="-5.5019" font-family="Helvetica Neue" font-size="14.00" fill="#000000">owner</text>
</g>
<!-- appreply&#45;&gt;appthread -->
<g id="edge4" class="edge">
<title>appreply:thread_id&#45;&gt;appthread:id</title>
<path fill="none" stroke="#f77f00" stroke-width="1.8" d="M485.1247,-150.7735C454.5115,-149.0918 423.784,-147.4038 423.784,-147.4038 423.784,-147.4038 419.892,-147.4038 419.892,-147.4038 419.892,-147.4038 368.1869,-229.9209 332.0976,-287.5163"/>
<polygon fill="#f77f00" stroke="#f77f00" stroke-width="1.8" points="485.4726,-150.7925 495.2107,-155.8343 490.4651,-151.0668 495.4576,-151.3411 495.4576,-151.3411 495.4576,-151.3411 490.4651,-151.0668 495.7044,-146.8479 485.4726,-150.7925 485.4726,-150.7925"/>
<polygon fill="#f77f00" stroke="#f77f00" stroke-width="1.8" points="334.078,-293.7727 325.6041,-288.4628 326.666,-286.7681 335.1399,-292.0779 334.078,-293.7727"/>
<polyline fill="none" stroke="#f77f00" stroke-width="1.8" points="329.31,-291.9651 331.9649,-287.7282 "/>
<text text-anchor="middle" x="421.838" y="-153.6076" font-family="Helvetica Neue" font-size="14.00" fill="#000000"> </text>
<text text-anchor="middle" x="426.1328" y="-203.635" font-family="Helvetica Neue" font-size="14.00" fill="#000000">BelongsTo</text>
<text text-anchor="middle" x="426.1328" y="-186.9331" font-family="Helvetica Neue" font-size="14.00" fill="#000000">thread</text>
</g>
<!-- appfavorite -->
<g id="node5" class="node">
<title>appfavorite</title>
<polygon fill="none" stroke="#000000" points="843.676,-204.1057 743.676,-204.1057 743.676,-104.1057 843.676,-104.1057 843.676,-204.1057"/>
<polygon fill="#d3d3d3" stroke="transparent" points="743.676,-166.1057 743.676,-204.1057 843.676,-204.1057 843.676,-166.1057 743.676,-166.1057"/>
<polygon fill="none" stroke="#000000" points="743.676,-166.1057 743.676,-204.1057 843.676,-204.1057 843.676,-166.1057 743.676,-166.1057"/>
<text text-anchor="start" x="768.532" y="-181.9057" font-family="Helvetica Neue" font-size="14.00" fill="#333333">Favorite</text>
</g>
<!-- appreply&#45;&gt;appfavorite -->
<g id="edge5" class="edge">
<title>appreply:id&#45;&gt;appfavorite:favorited_id</title>
<path fill="none" stroke="#003049" stroke-width="1.8" d="M595.9486,-154.1057C635.6808,-154.1057 691.3166,-154.1057 733.4546,-154.1057"/>
<polygon fill="#003049" stroke="#003049" stroke-width="1.8" points="733.586,-157.6058 743.586,-154.1057 733.5859,-150.6058 733.586,-157.6058"/>
<text text-anchor="middle" x="669.73" y="-159.6076" font-family="Helvetica Neue" font-size="14.00" fill="#000000"> </text>
<text text-anchor="middle" x="702.4386" y="-142.9057" font-family="Helvetica Neue" font-size="14.00" fill="#000000">MorphMany</text>
<text text-anchor="middle" x="702.4386" y="-126.2038" font-family="Helvetica Neue" font-size="14.00" fill="#000000">favorites</text>
</g>
<!-- appchannel&#45;&gt;appthread -->
<g id="edge6" class="edge">
<title>appchannel:id&#45;&gt;appthread:channel_id</title>
<path fill="none" stroke="#fcbf49" stroke-width="1.8" d="M495.694,-379.6087C455.8978,-372.0634 400.1121,-361.4865 357.9254,-353.488"/>
<polygon fill="#fcbf49" stroke="#fcbf49" stroke-width="1.8" points="357.8816,-353.4797 348.8949,-347.1956 352.9691,-352.5483 348.0566,-351.6169 348.0566,-351.6169 348.0566,-351.6169 352.9691,-352.5483 347.2183,-356.0381 357.8816,-353.4797 357.8816,-353.4797"/>
<text text-anchor="middle" x="421.838" y="-370.6076" font-family="Helvetica Neue" font-size="14.00" fill="#000000"> </text>
<text text-anchor="middle" x="456.3707" y="-388.7521" font-family="Helvetica Neue" font-size="14.00" fill="#000000">HasMany</text>
<text text-anchor="middle" x="456.3707" y="-372.0502" font-family="Helvetica Neue" font-size="14.00" fill="#000000">threads</text>
</g>
</g>
</svg>
